/* XPM */
static char * closeunfocused_xpm[] = {
"23 44 6 1",
" 	c None",
"@	c #7d2b4f",
"#	c #999999",
"$	c #AAA9A8",
".	c #777675",
"+	c #CCCBCA",
"@@@@@@@@@@@@@@@@@@@@@@@",
"@@@@@@@@@@@@@@@@@@@@@@@",
"@@@@@@@@@@@@@@@@@@@@@@@",
"@@@@@@@@@@@@@@@@@@@@@@@",
"@@@@@@@@@@@@@@@@@@@@@@@",
"@@$$$$$@@@@@$$$$+@@@@@@",
"@@@$...$@@@$...+@@@@@@@",
"@@@@$...$@$...+@@@@@@@@",
"@@@@@$...$...+@@@@@@@@@",
"@@@@@@$.....+@@@@@@@@@@",
"@@@@@@@$...+@@@@@@@@@@@",
"@@@@@@@$...+@@@@@@@@@@@",
"@@@@@@$.....+@@@@@@@@@@",
"@@@@@$...$...+@@@@@@@@@",
"@@@@$...$@$...+@@@@@@@@",
"@@@$...$@@@$...+@@@@@@@",
"@@$$$$$@@@@@$$$$+@@@@@@",
"@@@@@@@@@@@@@@@@@@@@@@@",
"@@@@@@@@@@@@@@@@@@@@@@@",
"@@@@@@@@@@@@@@@@@@@@@@@",
"@@@@@@@@@@@@@@@@@@@@@@@",
"@@@@@@@@@@@@@@@@@@@@@@@",
"@@@@@@@@@@@@@@@@@@@@@@@",
"@@@@@@@@@@@@@@@@@@@@@@@",
"@@@@@@@@@@@@@@@@@@@@@@@",
"@@@@@@@@@@@@@@@@@@@@@@@",
"@@@@@@@@@@@@@@@@@@@@@@@",
"@@@@@@@@@@@@@@@@@@@@@@@",
"@@$$$$$@@@@@$$$$+@@@@@@",
"@@@$...$@@@$...+@@@@@@@",
"@@@@$...$@$...+@@@@@@@@",
"@@@@@$...$...+@@@@@@@@@",
"@@@@@@$.....+@@@@@@@@@@",
"@@@@@@@$...+@@@@@@@@@@@",
"@@@@@@@$...+@@@@@@@@@@@",
"@@@@@@$.....+@@@@@@@@@@",
"@@@@@$...$...+@@@@@@@@@",
"@@@@$...$@$...+@@@@@@@@",
"@@@$...$@@@$...+@@@@@@@",
"@@$$$$$@@@@@$$$$$@@@@@@",
"@@@@@@@@@@@@@@@@@@@@@@@",
"@@@@@@@@@@@@@@@@@@@@@@@",
"@@@@@@@@@@@@@@@@@@@@@@@",
"@@@@@@@@@@@@@@@@@@@@@@@",
"@@@@@@@@@@@@@@@@@@@@@@@"};
