/* XPM */
static char * kill_xpm[] = {
"23 44 7 1",
". 	c #444444",
"+	c #f9f9f9",
"@	c #7d2b4f",
"$	c #999999",
"%	c #AAA9A8",
"&	c #777675",
"*	c #CCCBCA",
"@@@@@@@@@@@@@@@@@@@@@@@",
"@@@@@@@@@@@@@@@@@@@@@@@",
"@@@@@@@@@@@@@@@@@@@@@@@",
"@@@@@@@@@@@@@@@@@@@@@@@",
"@@@@@@@@@@@@@@@@@@@@@@@",
"@@$$$$$@@@@@$$$$$@@@@@@",
"@@@$...$@@@$...+@@@@@@@",
"@@@@$...$@$...+@@@@@@@@",
"@@@@@$...$...+@@@@@@@@@",
"@@@@@@$.....+@@@@@@@@@@",
"@@@@@@@$...+@@@@@@@@@@@",
"@@@@@@@$...+@@@@@@@@@@@",
"@@@@@@$.....+@@@@@@@@@@",
"@@@@@$...+...+@@@@@@@@@",
"@@@@$...+@+...+@@@@@@@@",
"@@@$...+@@@+...+@@@@@@@",
"@@$++++@@@@@+++++@@@@@@",
"@@@@@@@@@@@@@@@@@@@@@@@",
"@@@@@@@@@@@@@@@@@@@@@@@",
"@@@@@@@@@@@@@@@@@@@@@@@",
"@@@@@@@@@@@@@@@@@@@@@@@",
"@@@@@@@@@@@@@@@@@@@@@@@",
"@@@@@@@@@@@@@@@@@@@@@@@",
"@@@@@@@@@@@@@@@@@@@@@@@",
"@@@@@@@@@@@@@@@@@@@@@@@",
"@@@@@@@@@@@@@@@@@@@@@@@",
"@@@@@@@@@@@@@@@@@@@@@@@",
"@@@@@@@@@@@@@@@@@@@@@@@",
"@@@%%%%*@@@@@@%%%*@@@@@",
"@@@@%&&&*@@@*&&&*@@@@@@",
"@@@@@%&&&*@*&&&*@@@@@@@",
"@@@@@@%&&&*&&&*@@@@@@@@",
"@@@@@@@%&&&&&*@@@@@@@@@",
"@@@@@@@@%&&&*@@@@@@@@@@",
"@@@@@@@@%&&&*@@@@@@@@@@",
"@@@@@@@%&&&&&*@@@@@@@@@",
"@@@@@@%&&&*&&&*@@@@@@@@",
"@@@@@%&&&*@*&&&*@@@@@@@",
"@@@@%&&&*@@@*&&&*@@@@@@",
"@@@%****@@@@@****@@@@@@",
"@@@@@@@@@@@@@@@@@@@@@@@",
"@@@@@@@@@@@@@@@@@@@@@@@",
"@@@@@@@@@@@@@@@@@@@@@@@",
"@@@@@@@@@@@@@@@@@@@@@@@"};
