/* XPM */
static char * menu_xpm[] = {
"22 44 7 1",
". 	c #444444",
"@	c #c6c6c6",
"#	c #7d2b4f",
"$	c #999999",
"%	c #AAAAA8",
"&	c #7A7978",
"*	c #CBCAC9",
"######################",
"######################",
"######################",
"######################",
"######################",
"######################",
"######################",
"########$$$#$$$#######",
"########$..@$..@######",
"########$..@$..@######",
"#########@@@#@@@######",
"########$$$#$$$#######",
"########$..@$..@######",
"########$..@$..@######",
"#########@@@#@@@######",
"######################",
"######################",
"######################",
"######################",
"######################",
"######################",
"######################",
"######################",
"######################",
"######################",
"######################",
"######################",
"######################",
"######################",
"######################",
"#########%%%#%%%######",
"#########%&&*%&&*#####",
"#########%&&*%&&*#####",
"##########***#***#####",
"#########%%%#%%%######",
"#########%&&*%&&*#####",
"#########%&&*%&&*#####",
"##########***#***#####",
"######################",
"######################",
"######################",
"######################",
"######################",
"######################"};
