/* XPM */
static char * minimize_xpm[] = {
"20 44 7 1",
". 	c #444444",
"+	c #FFFFFF",
"#	c #7d2b4f",
"$	c #999999",
"%	c #AAA9A8",
"&	c #777675",
"*	c #CCCBCA",
"####################",
"####################",
"####################",
"####################",
"####################",
"####################",
"####################",
"####################",
"####################",
"####################",
"####################",
"####################",
"###$$$$$$$$$$$$$####",
"###$............+###",
"###$............+###",
"####+++++++++++++###",
"####################",
"####################",
"####################",
"####################",
"####################",
"####################",
"####################",
"####################",
"####################",
"####################",
"####################",
"####################",
"####################",
"####################",
"####################",
"####################",
"####################",
"####################",
"####%%%%%%%%%%%%%###",
"####%&&&&&&&&&&&&*##",
"####%&&&&&&&&&&&&*##",
"#####*************##",
"####################",
"####################",
"####################",
"####################",
"####################",
"####################"};
