/* XPM */
static char * windows_xpm[] = {
"18 18 4 1",
" 	c None",
".	c #444444",
"+	c #f9f9f9",
"%	c #7d2b4f",
"                  ",
" ..........       ",
".++++++++++.      ",
".++++++++++.      ",
"................. ",
"............+++++.",
".%%%%%%%%%%.+++++.",
".%%%%%%%%%%.......",
".%%%%%%%%%%.......",
".%%%%%%%%%%.%%%%%.",
".%%%%%%%%%%.%%%%%.",
".%%%%%%%%%%.%%%%%.",
" ..........%%%%%%.",
"      .%%%%%%%%%%.",
"      .%%%%%%%%%%.",
"       .......... ",
"                  ",
"                  "};
